PathFileType	4	(X/Y/Z)	s01c0401.trc
DataRate	CameraRate	NumFrames	NumMarkers	Units	OrigDataRate	OrigDataStartFrame	OrigNumFrames
200	200	5	48	mm	200	0	2000
Frame#	Time	racr			lacr			c7			jug			rlel			rdr			llel			ldr			s2			lic			ric			lasi			rasi			rpsi			lpsi			rgt			lgt			rth1			rth2			rth3			rth4			rlfc			rsh1			rsh2			rsh3			rsh4			rlmal			rmmal			rcal			rtoe			rmt5			lth1			lth2			lth4			lth3			llfc			lsh1			lsh2			lsh3			lsh4			llmal			lmmal			lcal			ltoe			lmt5			SBIKE			LBIKE			RBIKE			
		X1	Y1	Z1	X2	Y2	Z2	X3	Y3	Z3	X4	Y4	Z4	X5	Y5	Z5	X6	Y6	Z6	X7	Y7	Z7	X8	Y8	Z8	X9	Y9	Z9	X10	Y10	Z10	X11	Y11	Z11	X12	Y12	Z12	X13	Y13	Z13	X14	Y14	Z14	X15	Y15	Z15	X16	Y16	Z16	X17	Y17	Z17	X18	Y18	Z18	X19	Y19	Z19	X20	Y20	Z20	X21	Y21	Z21	X22	Y22	Z22	X23	Y23	Z23	X24	Y24	Z24	X25	Y25	Z25	X26	Y26	Z26	X27	Y27	Z27	X28	Y28	Z28	X29	Y29	Z29	X30	Y30	Z30	X31	Y31	Z31	X32	Y32	Z32	X33	Y33	Z33	X34	Y34	Z34	X35	Y35	Z35	X36	Y36	Z36	X37	Y37	Z37	X38	Y38	Z38	X39	Y39	Z39	X40	Y40	Z40	X41	Y41	Z41	X42	Y42	Z42	X43	Y43	Z43	X44	Y44	Z44	X45	Y45	Z45	X46	Y46	Z46	X47	Y47	Z47	X48	Y48	Z48	
0	0.0000	470.375458	1369.191230	-113.541480	462.852829	1366.693639	-429.627864	424.921682	1425.152060	-262.102837	451.027163	1266.787645	-266.442462	563.067172	1107.368777	-30.814713	711.245081	893.763347	-58.308645	558.756467	1105.436112	-495.192311	700.335470	891.890369	-462.321957	-64.669939	1138.419287	-251.788441	125.689455	1159.585592	-431.653699	104.100647	1134.410125	-102.350829	106.061107	1105.688765	-407.141362	127.099688	1087.044467	-134.102336	-30.237377	1172.735038	-200.229952	-38.655725	1182.389437	-304.891000	43.697890	1013.755406	-75.378601	46.342382	1032.198639	-462.330825	121.188250	900.695489	-60.009937	175.440059	837.761607	-64.193275	230.138271	766.364255	-76.887303	218.516556	872.034925	-75.552030	272.154555	669.340873	-98.231425	190.180505	585.473923	-64.688590	140.717674	516.388371	-66.984153	81.166740	450.439533	-77.814991	176.422295	488.644893	-106.642482	-2.778779	354.664306	-94.544563	0.000000	0.000000	-0.000000	-59.779800	336.983502	-147.614539	192.578661	236.894923	-143.176391	87.196472	240.781068	-69.321635	147.635350	949.217157	-474.671881	233.653224	935.134893	-473.391803	244.915808	989.048300	-468.459335	316.235979	913.456092	-459.957120	408.600985	857.508855	-440.162820	0.000000	0.000000	-0.000000	311.044343	681.714652	-450.873706	279.513690	603.415110	-432.516646	364.927697	664.156838	-425.435373	238.430630	482.761519	-410.345238	270.282508	495.586432	-328.487391	191.075514	438.179958	-369.370091	468.041245	452.474676	-384.215665	364.888500	418.227910	-447.589584	0.000000	0.000000	-0.000000	-21.132029	80.760489	-454.174249	-21.474777	80.517697	-53.829109	
1	0.0050	470.396005	1369.157486	-113.574718	462.841590	1366.662218	-429.647009	424.919998	1425.147995	-262.120669	451.021703	1266.840302	-266.464781	563.075528	1107.345609	-30.811887	711.245472	893.755895	-58.295614	558.730233	1105.445507	-495.247498	700.305434	891.908214	-462.360382	-64.674348	1138.435844	-251.807103	125.691255	1159.592505	-431.686155	104.086746	1134.435257	-102.338821	106.065900	1105.684781	-407.150095	127.110357	1087.076642	-134.094458	-30.226632	1172.748326	-200.245648	-38.624169	1182.393178	-304.923252	43.722230	1013.744157	-75.408005	46.355210	1032.207955	-462.340241	121.203206	900.721147	-60.014204	175.468523	837.780974	-64.211751	230.165795	766.375545	-76.894363	218.542538	872.050357	-75.580516	272.169453	669.383639	-98.240503	190.223844	585.497319	-64.700016	140.750362	516.420385	-66.987495	81.173785	450.471304	-77.838719	176.434825	488.657056	-106.654344	-2.770162	354.711208	-94.568825	0.000000	0.000000	-0.000000	-59.777642	337.043611	-147.615700	192.552536	236.918382	-143.170594	87.201521	240.829848	-69.332126	147.650338	949.251361	-474.648626	233.663039	935.169997	-473.336153	244.930169	988.980737	-468.452162	316.251610	913.449869	-459.936326	408.588370	857.476658	-440.152686	0.000000	0.000000	-0.000000	311.047932	681.649374	-450.863491	279.520329	603.386581	-432.512683	364.911203	664.132814	-425.412227	238.502357	482.796551	-410.372804	270.235609	495.514906	-328.493379	191.085956	438.136581	-369.384970	468.052541	452.444258	-384.228509	364.963795	417.807587	-446.995174	0.000000	0.000000	-0.000000	-21.122371	80.753956	-454.179550	-21.460511	80.502258	-53.844183	
2	0.0100	470.397339	1369.148545	-113.578031	462.835150	1366.676085	-429.666230	424.940608	1425.138062	-262.139384	451.002306	1266.842933	-266.484655	563.077013	1107.332896	-30.813787	711.250789	893.756351	-58.292382	558.727332	1105.437584	-495.287172	700.322284	891.908790	-462.377984	-64.683840	1138.436384	-251.814969	125.714317	1159.353664	-431.762555	103.798177	1134.665830	-101.656879	106.054523	1105.686233	-407.165134	127.106551	1087.092725	-134.097826	-30.220431	1172.762339	-200.262095	-39.016225	1182.550764	-304.718895	43.716729	1013.761743	-75.386642	46.369069	1032.212228	-462.353784	121.213008	900.747394	-60.020858	175.457580	837.814845	-64.212078	230.176789	766.396448	-76.897983	218.527885	872.077092	-75.573472	272.181999	669.402375	-98.240625	190.251476	585.535367	-64.704329	140.777456	516.453688	-66.983150	81.171536	450.511673	-77.839338	176.437397	488.687247	-106.670418	-2.777013	354.744854	-94.560306	0.000000	0.000000	-0.000000	-59.777935	337.088103	-147.629675	192.546496	236.925404	-143.182253	87.196610	240.874369	-69.322417	147.659735	949.285274	-474.610174	233.649726	935.168125	-473.299627	244.933176	988.974455	-468.396948	316.231038	913.420601	-459.912561	408.591301	857.448267	-440.133262	0.000000	0.000000	-0.000000	311.035681	681.618319	-450.841683	279.517153	603.336688	-432.502038	364.913617	664.096197	-425.411767	238.742313	482.743847	-410.369411	270.260893	495.494632	-328.491189	190.974204	438.183243	-369.432791	468.060676	452.421513	-384.226094	365.118356	417.717745	-446.899168	0.000000	0.000000	-0.000000	-21.117467	80.749941	-454.174671	-21.450344	80.496579	-53.845400	
3	0.0150	470.393134	1369.138474	-113.584935	462.824280	1366.646909	-429.707319	424.992915	1424.206773	-262.346111	451.000952	1266.855190	-266.533776	562.957380	1107.326855	-30.724727	711.256872	893.748006	-58.290415	558.735766	1105.428895	-495.330738	700.248342	893.421338	-462.503930	-64.623358	1138.530629	-252.279327	125.732328	1159.108162	-431.833022	104.015417	1134.984290	-101.030191	106.053049	1105.700029	-407.164952	127.100704	1087.118921	-134.103319	-31.253573	1174.295621	-198.776148	-39.331327	1182.680621	-304.557556	43.713115	1013.769900	-75.395927	46.376382	1032.216988	-462.353857	120.819416	900.178500	-60.292770	175.481754	837.825087	-64.220257	230.276503	766.366193	-77.025800	218.605169	872.201063	-75.476842	272.202716	669.431858	-98.247156	190.358157	585.530069	-64.696066	140.781756	516.468852	-66.993731	81.171558	450.557725	-77.835743	177.029086	489.308472	-106.847097	-2.764780	354.768716	-94.570854	0.000000	0.000000	-0.000000	-59.785754	337.149941	-147.621823	192.436329	236.992490	-143.075267	87.166390	240.916852	-69.330647	147.670725	949.317291	-474.572134	233.664572	935.186275	-473.249242	245.665640	988.713883	-471.708285	316.225183	913.388877	-459.876746	408.575268	857.425704	-440.117313	0.000000	0.000000	-0.000000	318.359517	679.515657	-453.146413	279.514720	603.285850	-432.487919	365.434926	664.301486	-426.311341	239.032875	482.714734	-410.342005	270.300942	495.612512	-328.512701	190.807579	438.239253	-369.469300	468.068900	452.399474	-384.226709	365.254710	417.583831	-446.738837	0.000000	0.000000	-0.000000	-21.113284	80.742214	-454.171941	-21.454136	80.513614	-53.832672	
4	0.0200	470.304425	1369.065381	-113.622963	462.744277	1366.294332	-429.848330	424.852493	1424.312089	-262.117087	450.963435	1266.821988	-266.670385	563.006129	1107.286284	-30.784411	711.414316	893.742290	-58.281237	558.628849	1105.257162	-495.342186	700.134938	893.435785	-462.464891	-64.802646	1138.627409	-252.021886	125.753977	1158.878435	-431.900409	104.023619	1134.935249	-101.245509	106.104550	1105.534414	-407.051722	127.140309	1087.153290	-134.109431	-31.257082	1174.247972	-198.780809	-39.696523	1182.825867	-304.368116	43.663095	1013.731664	-75.002403	46.479844	1032.244440	-462.587969	120.822460	900.212016	-60.285047	175.448810	837.806163	-64.152202	230.256614	766.307786	-76.936510	218.600652	872.256153	-75.479529	272.261319	669.458069	-98.298868	190.323882	585.547552	-64.829867	140.818505	516.449583	-67.073730	81.189518	450.570904	-77.836348	177.078530	489.292258	-106.803764	-2.778376	354.739693	-94.635866	0.000000	0.000000	-0.000000	-59.841291	337.145399	-147.617775	192.419941	236.947621	-143.071061	87.167000	240.916489	-69.320003	147.680241	949.347416	-474.527210	233.672185	935.073578	-473.224859	245.522701	988.775396	-470.567452	316.255860	913.261499	-459.869653	408.268043	857.088146	-440.558779	0.000000	0.000000	-0.000000	318.171813	679.178688	-453.125190	279.510069	603.229427	-432.470347	362.451226	663.416274	-425.725319	239.301911	482.662814	-410.298593	270.304465	495.525279	-328.514255	190.637338	438.293743	-369.505048	468.076851	452.301571	-384.192759	365.387400	417.565615	-446.758952	0.000000	0.000000	-0.000000	-21.112180	80.735701	-454.168274	-21.514648	80.347527	-53.862900	
